<svg width="64" height="64" viewBox="0 0 64 64" fill="none" xmlns="http://www.w3.org/2000/svg">
  <!-- Outer glow ring -->
  <circle cx="32" cy="32" r="30" fill="url(#glowGradient)" opacity="0.3"/>
  <circle cx="32" cy="32" r="28" fill="none" stroke="url(#ringGradient)" stroke-width="2" opacity="0.6"/>

  <!-- Main sapphire crystal -->
  <g transform="translate(32,32)">
    <!-- Crystal facets with sapphire gradients -->
    <path d="M-8,-12 L8,-12 L12,0 L-12,0 Z" fill="url(#sapphireGradient1)"/>
    <path d="M-6,-8 L6,-8 L10,4 L-10,4 Z" fill="url(#sapphireGradient2)"/>
    <path d="M-4,-4 L4,-4 L6,8 L-6,8 Z" fill="url(#sapphireGradient3)"/>
    <path d="M-2,0 L2,0 L3,12 L-3,12 Z" fill="url(#sapphireGradient4)"/>

    <!-- Inner crystal highlight -->
    <circle cx="0" cy="-6" r="2" fill="url(#highlightGradient)" opacity="0.8"/>
    <circle cx="0" cy="-2" r="1.5" fill="url(#highlightGradient)" opacity="0.6"/>
    <circle cx="0" cy="2" r="1" fill="url(#highlightGradient)" opacity="0.4"/>
  </g>

  <!-- Trading arrows integrated into crystal -->
  <g transform="translate(32,32)">
    <!-- Upward trending arrow -->
    <path d="M-1,-14 L1,-14 L1,-10 L3,-10 L0,-7 L-3,-10 L-1,-10 Z"
          fill="url(#arrowGradient)" opacity="0.9"/>
    <!-- Downward trending arrow -->
    <path d="M-1,10 L1,10 L1,14 L3,14 L0,17 L-3,14 L-1,14 Z"
          fill="url(#arrowGradient)" opacity="0.7"/>
  </g>

  <!-- Gradient definitions -->
  <defs>
    <!-- Outer glow -->
    <radialGradient id="glowGradient" cx="0.5" cy="0.5" r="0.5">
      <stop offset="0%" stop-color="#00d4aa" stop-opacity="0.6"/>
      <stop offset="50%" stop-color="#8a2be2" stop-opacity="0.4"/>
      <stop offset="100%" stop-color="#00d4aa" stop-opacity="0"/>
    </radialGradient>

    <!-- Ring gradient -->
    <linearGradient id="ringGradient" x1="0%" y1="0%" x2="100%" y2="100%">
      <stop offset="0%" stop-color="#00d4aa"/>
      <stop offset="50%" stop-color="#8a2be2"/>
      <stop offset="100%" stop-color="#00f5d4"/>
    </linearGradient>

    <!-- Sapphire crystal gradients -->
    <linearGradient id="sapphireGradient1" x1="0%" y1="0%" x2="100%" y2="100%">
      <stop offset="0%" stop-color="#00d4aa"/>
      <stop offset="30%" stop-color="#00f5d4"/>
      <stop offset="70%" stop-color="#8a2be2"/>
      <stop offset="100%" stop-color="#6b21a8"/>
    </linearGradient>

    <linearGradient id="sapphireGradient2" x1="0%" y1="0%" x2="100%" y2="100%">
      <stop offset="0%" stop-color="#00f5d4"/>
      <stop offset="50%" stop-color="#8a2be2"/>
      <stop offset="100%" stop-color="#a855f7"/>
    </linearGradient>

    <linearGradient id="sapphireGradient3" x1="0%" y1="0%" x2="100%" y2="100%">
      <stop offset="0%" stop-color="#8a2be2"/>
      <stop offset="50%" stop-color="#00d4aa"/>
      <stop offset="100%" stop-color="#00f5d4"/>
    </linearGradient>

    <linearGradient id="sapphireGradient4" x1="0%" y1="0%" x2="100%" y2="100%">
      <stop offset="0%" stop-color="#a855f7"/>
      <stop offset="50%" stop-color="#00f5d4"/>
      <stop offset="100%" stop-color="#00d4aa"/>
    </linearGradient>

    <!-- Highlight gradient -->
    <radialGradient id="highlightGradient" cx="0.3" cy="0.3" r="0.7">
      <stop offset="0%" stop-color="#ffffff" stop-opacity="0.9"/>
      <stop offset="50%" stop-color="#00f5d4" stop-opacity="0.7"/>
      <stop offset="100%" stop-color="#00d4aa" stop-opacity="0.3"/>
    </radialGradient>

    <!-- Arrow gradient -->
    <linearGradient id="arrowGradient" x1="0%" y1="0%" x2="100%" y2="100%">
      <stop offset="0%" stop-color="#00f5d4"/>
      <stop offset="100%" stop-color="#00d4aa"/>
    </linearGradient>
  </defs>
</svg>
